<?xml version="1.0" encoding="UTF-8" standalone="no"?>
<!-- Created with Inkscape (http://www.inkscape.org/) -->

<svg
   xmlns:dc="http://purl.org/dc/elements/1.1/"
   xmlns:cc="http://creativecommons.org/ns#"
   xmlns:rdf="http://www.w3.org/1999/02/22-rdf-syntax-ns#"
   xmlns:svg="http://www.w3.org/2000/svg"
   xmlns="http://www.w3.org/2000/svg"
   xmlns:sodipodi="http://sodipodi.sourceforge.net/DTD/sodipodi-0.dtd"
   xmlns:inkscape="http://www.inkscape.org/namespaces/inkscape"
   width="163.48123mm"
   height="26.761106mm"
   viewBox="0 0 163.48123 26.761106"
   version="1.1"
   id="svg8"
   inkscape:version="0.92.1 r15371"
   sodipodi:docname="Logo.svg">
  <defs
     id="defs2" />
  <sodipodi:namedview
     id="base"
     pagecolor="#ffffff"
     bordercolor="#666666"
     borderopacity="1.0"
     inkscape:pageopacity="0.0"
     inkscape:pageshadow="2"
     inkscape:zoom="1.6307766"
     inkscape:cx="323.3635"
     inkscape:cy="-38.260651"
     inkscape:document-units="mm"
     inkscape:current-layer="layer1"
     showgrid="false"
     inkscape:window-width="1440"
     inkscape:window-height="837"
     inkscape:window-x="-8"
     inkscape:window-y="-8"
     inkscape:window-maximized="1"
     showguides="true"
     inkscape:guide-bbox="true"
     fit-margin-top="0"
     fit-margin-left="0"
     fit-margin-right="0"
     fit-margin-bottom="0" />
  <metadata
     id="metadata5">
    <rdf:RDF>
      <cc:Work
         rdf:about="">
        <dc:format>image/svg+xml</dc:format>
        <dc:type
           rdf:resource="http://purl.org/dc/dcmitype/StillImage" />
        <dc:title></dc:title>
      </cc:Work>
    </rdf:RDF>
  </metadata>
  <g
     inkscape:label="Layer 1"
     inkscape:groupmode="layer"
     id="layer1"
     transform="translate(-0.0083335,0.00458126)">
    <g
       id="g4605"
       transform="translate(-44.130305,-30.501828)"
       inkscape:export-filename="D:\Source\pdsicp\PDSI.IdentityServer\wwwroot\full_logo_195x32.png"
       inkscape:export-xdpi="94.91391"
       inkscape:export-ydpi="94.91391">
      <g
         inkscape:export-ydpi="30.370001"
         inkscape:export-xdpi="30.370001"
         id="g4557">
        <g
           id="g4540">
          <circle
             style="fill:#2d2d91;fill-opacity:1;stroke-width:0.26458332"
             r="4.3847113"
             cy="34.881958"
             cx="53.815022"
             id="path3694" />
          <circle
             id="circle4501"
             cx="63.869194"
             cy="34.881958"
             r="4.3847113"
             style="fill:#2d2d91;fill-opacity:1;stroke-width:0.26458332" />
          <circle
             id="circle4503"
             cx="48.52335"
             cy="43.8778"
             r="4.3847113"
             style="fill:#2d2d91;fill-opacity:1;stroke-width:0.26458332" />
          <circle
             id="circle4505"
             cx="53.815022"
             cy="52.873642"
             r="4.3847113"
             style="fill:#2d2d91;fill-opacity:1;stroke-width:0.26458332" />
          <circle
             id="circle4507"
             cx="63.869198"
             cy="52.873642"
             r="4.3847113"
             style="fill:#2d2d91;fill-opacity:1;stroke-width:0.26458332" />
          <circle
             id="circle4509"
             cx="69.160866"
             cy="43.8778"
             r="4.3847113"
             style="fill:#2d2d91;fill-opacity:1;stroke-width:0.26458332" />
        </g>
        <g
           id="g4532"
           transform="translate(-0.05917931,-0.11313629)">
          <circle
             r="1.3738762"
             cy="40.815933"
             cx="58.901287"
             id="path4511"
             style="fill:#f58220;fill-opacity:1;stroke-width:0.26458332" />
          <circle
             style="fill:#f58220;fill-opacity:1;stroke-width:0.26458332"
             id="circle4513"
             cx="62.07629"
             cy="40.815933"
             r="1.3738762" />
          <circle
             style="fill:#f58220;fill-opacity:1;stroke-width:0.26458332"
             id="circle4515"
             cx="55.726284"
             cy="43.990936"
             r="1.3738762" />
          <circle
             style="fill:#f58220;fill-opacity:1;stroke-width:0.26458332"
             id="circle4517"
             cx="58.901287"
             cy="43.990936"
             r="1.3738762" />
          <circle
             style="fill:#f58220;fill-opacity:1;stroke-width:0.26458332"
             id="circle4519"
             cx="62.07629"
             cy="43.990936"
             r="1.3738762" />
          <circle
             style="fill:#f58220;fill-opacity:1;stroke-width:0.26458332"
             id="circle4521"
             cx="58.901287"
             cy="47.165939"
             r="1.3738762" />
          <circle
             style="fill:#f58220;fill-opacity:1;stroke-width:0.26458332"
             id="circle4523"
             cx="55.726284"
             cy="47.165939"
             r="1.3738762" />
        </g>
      </g>
      <g
         transform="translate(-1.720855)"
         id="g4577">
        <g
           aria-label="PROVISION"
           style="font-style:normal;font-variant:normal;font-weight:normal;font-stretch:normal;font-size:22.88680267px;line-height:1.25;font-family:'Eras Bold ITC';-inkscape-font-specification:'Eras Bold ITC';letter-spacing:0px;word-spacing:0px;fill:#000000;fill-opacity:1;stroke:none;stroke-width:0.47680834"
           id="text4561">
          <path
             d="m 76.735836,47.748035 0.223504,-2.86085 0.290556,-5.587598 0.122927,-3.95602 q 0.01118,-0.636986 0.01118,-1.273972 0,-0.480534 -0.01118,-1.575703 1.475126,0.03353 2.369141,0.03353 0.860491,0 2.357967,-0.0447 1.497476,-0.05588 2.536769,-0.05588 1.497477,0 2.212689,0.189978 0.726388,0.189979 1.307498,0.603461 0.581111,0.402307 0.961067,0.949892 0.379957,0.547584 0.569935,1.251622 0.189979,0.692862 0.189979,1.41925 0,1.497476 -0.726388,2.737923 -0.726388,1.240447 -2.045061,1.855082 -1.318673,0.614636 -2.961427,0.614636 -0.603461,0 -1.3969,-0.134102 -0.0894,-0.514059 -0.335256,-1.531002 -0.245854,-1.016943 -0.402307,-1.508652 0.491709,0.100577 1.028118,0.100577 1.128695,0 1.67628,-0.536409 0.55876,-0.547585 0.55876,-1.329849 0,-0.379956 -0.122927,-0.670512 -0.122928,-0.30173 -0.391132,-0.491708 -0.268205,-0.189979 -0.592286,-0.245855 -0.32408,-0.05588 -0.737563,-0.05588 -0.402307,0 -0.838139,0.02235 l -0.938717,0.06705 q -0.145278,2.156813 -0.223504,4.794159 -0.145278,4.805335 -0.145278,5.766402 v 1.452775 l -2.223864,-0.02235 q -0.469358,0 -2.324441,0.02235 z"
             style="font-style:normal;font-variant:normal;font-weight:normal;font-stretch:normal;font-size:22.88680267px;font-family:'Eras Bold ITC';-inkscape-font-specification:'Eras Bold ITC';stroke-width:0.47680834"
             id="path4510"
             inkscape:connector-curvature="0" />
          <path
             d="m 91.285942,47.748035 q 0.212329,-1.966834 0.335256,-3.542537 0.122927,-1.575703 0.212329,-3.654289 0.0894,-2.078587 0.134102,-4.380677 0.0447,-2.313266 0.0447,-3.67664 1.3969,0.03353 2.25739,0.03353 0.894016,0 2.179163,-0.0447 1.285148,-0.05588 2.503244,-0.05588 1.430424,0 2.547944,0.111752 0.83814,0.07823 1.51983,0.324081 0.69286,0.245854 1.16222,0.60346 0.46936,0.346431 0.78226,0.782264 0.31291,0.435833 0.48054,1.028118 0.1788,0.58111 0.1788,1.251622 0,0.748738 -0.18998,1.408075 -0.18998,0.648161 -0.60346,1.229271 -0.40231,0.569935 -1.02812,0.994593 -0.61463,0.413482 -1.73215,0.849315 l 0.58111,1.41925 q 0.24585,0.592285 0.52523,1.206921 l 1.49748,3.274333 q 0.10057,0.212328 0.3576,0.838139 -1.8439,-0.02235 -2.48089,-0.02235 -0.80461,0 -2.637347,0.02235 -0.178803,-0.58111 -0.648161,-2.156813 -0.189979,-0.659336 -0.324081,-1.016942 -0.268205,-0.793439 -0.793439,-2.223865 l -1.151045,-3.16258 q 0.60346,0.111752 1.184571,0.111752 0.815789,0 1.475126,-0.245855 0.670516,-0.245854 1.005766,-0.759913 0.34643,-0.514059 0.34643,-1.083994 0,-0.480533 -0.25703,-0.83814 -0.25703,-0.368781 -0.815787,-0.547584 -0.547584,-0.178804 -1.698629,-0.178804 -0.391132,0 -0.81579,0.02235 -0.413482,0.01118 -0.972242,0.02235 -0.145277,2.290916 -0.257029,5.587599 -0.111752,3.296683 -0.145278,6.470438 -1.866258,-0.02235 -2.425018,-0.02235 -0.648161,0 -2.335616,0.02235 z"
             style="font-style:normal;font-variant:normal;font-weight:normal;font-stretch:normal;font-size:22.88680267px;font-family:'Eras Bold ITC';-inkscape-font-specification:'Eras Bold ITC';stroke-width:0.47680834"
             id="path4512"
             inkscape:connector-curvature="0" />
          <path
             d="m 116.58659,32.203337 q 1.78803,0 3.44196,0.480533 1.65393,0.480534 2.89437,1.542178 1.24045,1.050468 1.85509,2.425017 0.61463,1.374549 0.61463,3.162581 0,1.877433 -0.68168,3.453136 -0.67052,1.564527 -1.94449,2.659696 -1.27397,1.09517 -3.03965,1.609229 -1.76568,0.502884 -3.67664,0.502884 -1.88861,0 -3.62077,-0.491709 -1.73215,-0.502884 -3.0173,-1.609228 -1.27397,-1.11752 -1.81038,-2.480894 -0.53641,-1.363374 -0.53641,-3.028478 0,-2.447368 1.1287,-4.291276 1.13987,-1.855082 3.36373,-2.894376 2.23504,-1.039293 5.02884,-1.039293 z m -0.20116,3.363734 q -1.28514,0 -2.32444,0.636986 -1.03929,0.625811 -1.59805,1.754506 -0.55876,1.11752 -0.55876,2.402667 0,1.184571 0.50288,2.167989 0.51406,0.983417 1.55336,1.542177 1.03929,0.547584 2.20151,0.547584 1.24045,0 2.26857,-0.614635 1.03929,-0.625811 1.5757,-1.743331 0.54758,-1.128695 0.54758,-2.357967 0,-1.195746 -0.50288,-2.201513 -0.50289,-1.016943 -1.47513,-1.575703 -0.97224,-0.55876 -2.19034,-0.55876 z"
             style="font-style:normal;font-variant:normal;font-weight:normal;font-stretch:normal;font-size:22.88680267px;font-family:'Eras Bold ITC';-inkscape-font-specification:'Eras Bold ITC';stroke-width:0.47680834"
             id="path4514"
             inkscape:connector-curvature="0" />
          <path
             d="m 131.25962,47.748035 -0.41348,-1.363374 -2.72675,-7.856163 -2.14564,-6.034606 q 1.51983,0.02235 2.7044,0.02235 0.72639,0 2.27974,-0.02235 0.25703,0.994593 0.40231,1.508652 0.20115,0.670511 0.75991,2.425017 l 1.64275,5.285868 q 0.24586,0.826965 0.60346,2.156813 l 0.51406,-1.285147 3.90015,-8.537851 q 0.10057,-0.234679 0.2235,-0.536409 0.1341,-0.30173 0.41348,-1.016943 1.62041,0.02235 2.60382,0.02235 0.61464,0 2.4362,-0.02235 -1.13987,2.123287 -2.58147,4.961787 l -3.85545,7.643835 q -0.55876,1.117519 -1.25162,2.648521 -1.87743,-0.02235 -2.68205,-0.02235 -0.74873,0 -2.82732,0.02235 z"
             style="font-style:normal;font-variant:normal;font-weight:normal;font-stretch:normal;font-size:22.88680267px;font-family:'Eras Bold ITC';-inkscape-font-specification:'Eras Bold ITC';stroke-width:0.47680834"
             id="path4516"
             inkscape:connector-curvature="0" />
          <path
             d="m 144.50222,47.748035 q 0.64817,-8.973682 0.64817,-13.812543 l -0.0112,-1.4416 q 1.95566,0.02235 2.615,0.02235 0.30173,0 2.40266,-0.02235 -0.20115,2.514419 -0.32408,4.760634 -0.15645,3.129055 -0.2235,5.855803 -0.067,2.715573 -0.067,4.637706 l -2.29092,-0.02235 q -0.67051,0 -2.7491,0.02235 z"
             style="font-style:normal;font-variant:normal;font-weight:normal;font-stretch:normal;font-size:22.88680267px;font-family:'Eras Bold ITC';-inkscape-font-specification:'Eras Bold ITC';stroke-width:0.47680834"
             id="path4518"
             inkscape:connector-curvature="0" />
          <path
             d="m 152.14606,47.513356 q -0.14528,-2.380317 -0.33526,-3.810742 1.25163,0.55876 2.22387,0.782264 0.98342,0.212329 1.72098,0.212329 0.97224,0 1.54218,-0.27938 0.58111,-0.290555 0.58111,-0.849315 0,-0.189978 -0.0559,-0.357606 -0.0559,-0.178804 -0.21233,-0.391132 -0.15645,-0.223504 -0.44701,-0.480534 l -2.10093,-1.832732 q -0.73757,-0.625811 -1.02812,-0.905191 -0.59229,-0.569935 -0.92754,-1.061644 -0.32408,-0.491708 -0.48054,-0.994592 -0.14527,-0.514059 -0.14527,-1.083994 0,-0.681687 0.23468,-1.329849 0.24585,-0.659336 0.72638,-1.229271 0.48054,-0.569935 1.27398,-0.983417 0.79343,-0.413483 1.69863,-0.55876 0.90519,-0.156453 1.86625,-0.156453 1.88861,0 4.11248,0.435833 0.0335,0.771088 0.0782,1.41925 0.0447,0.636986 0.21233,2.246214 -1.02812,-0.413482 -1.87743,-0.569935 -0.84932,-0.167628 -1.46395,-0.167628 -0.87167,0 -1.45278,0.324081 -0.56993,0.324081 -0.56993,0.804614 0,0.223504 0.0894,0.435833 0.0894,0.212328 0.33525,0.502883 0.24586,0.27938 0.64817,0.625812 0.4023,0.335255 1.26279,1.005767 l 0.80462,0.636986 q 0.3576,0.290556 0.77109,0.704038 0.41348,0.413482 0.71521,0.815789 0.30173,0.402307 0.45818,0.737563 0.16763,0.335256 0.24586,0.681687 0.0782,0.335256 0.0782,0.726388 0,1.005768 -0.48053,1.922134 -0.48053,0.905191 -1.36338,1.497476 -0.88284,0.58111 -1.94448,0.815789 -1.05047,0.23468 -2.22386,0.23468 -1.81039,0 -4.57066,-0.525235 z"
             style="font-style:normal;font-variant:normal;font-weight:normal;font-stretch:normal;font-size:22.88680267px;font-family:'Eras Bold ITC';-inkscape-font-specification:'Eras Bold ITC';stroke-width:0.47680834"
             id="path4520"
             inkscape:connector-curvature="0" />
          <path
             d="m 164.97519,47.748035 q 0.64816,-8.973682 0.64816,-13.812543 l -0.0112,-1.4416 q 1.95566,0.02235 2.615,0.02235 0.30173,0 2.40267,-0.02235 -0.20116,2.514419 -0.32409,4.760634 -0.15645,3.129055 -0.2235,5.855803 -0.067,2.715573 -0.067,4.637706 l -2.29092,-0.02235 q -0.67051,0 -2.74909,0.02235 z"
             style="font-style:normal;font-variant:normal;font-weight:normal;font-stretch:normal;font-size:22.88680267px;font-family:'Eras Bold ITC';-inkscape-font-specification:'Eras Bold ITC';stroke-width:0.47680834"
             id="path4522"
             inkscape:connector-curvature="0" />
          <path
             d="m 181.98384,32.203337 q 1.78803,0 3.44196,0.480533 1.65393,0.480534 2.89437,1.542178 1.24045,1.050468 1.85509,2.425017 0.61463,1.374549 0.61463,3.162581 0,1.877433 -0.68169,3.453136 -0.67051,1.564527 -1.94448,2.659696 -1.27397,1.09517 -3.03965,1.609229 -1.76568,0.502884 -3.67664,0.502884 -1.88861,0 -3.62077,-0.491709 -1.73215,-0.502884 -3.0173,-1.609228 -1.27397,-1.11752 -1.81038,-2.480894 -0.53641,-1.363374 -0.53641,-3.028478 0,-2.447368 1.12869,-4.291276 1.13987,-1.855082 3.36374,-2.894376 2.23504,-1.039293 5.02884,-1.039293 z m -0.20116,3.363734 q -1.28514,0 -2.32444,0.636986 -1.03929,0.625811 -1.59805,1.754506 -0.55876,1.11752 -0.55876,2.402667 0,1.184571 0.50288,2.167989 0.51406,0.983417 1.55336,1.542177 1.03929,0.547584 2.20151,0.547584 1.24045,0 2.26856,-0.614635 1.0393,-0.625811 1.57571,-1.743331 0.54758,-1.128695 0.54758,-2.357967 0,-1.195746 -0.50288,-2.201513 -0.50289,-1.016943 -1.47513,-1.575703 -0.97224,-0.55876 -2.19034,-0.55876 z"
             style="font-style:normal;font-variant:normal;font-weight:normal;font-stretch:normal;font-size:22.88680267px;font-family:'Eras Bold ITC';-inkscape-font-specification:'Eras Bold ITC';stroke-width:0.47680834"
             id="path4524"
             inkscape:connector-curvature="0" />
          <path
             d="m 192.61145,47.748035 0.22351,-2.346791 0.43583,-7.95674 0.12293,-3.207281 v -1.743331 q 1.73215,0.02235 3.062,0.02235 0.94989,0 2.67087,-0.02235 l 4.78299,8.671953 0.65933,1.273972 q 0.12293,-1.877433 0.24586,-5.263518 0.1341,-3.386084 0.1341,-4.682407 1.37455,0.02235 2.20151,0.02235 0.37996,0 2.19034,-0.02235 l -0.2682,3.330209 -0.50289,9.253062 -0.067,2.670872 q -1.45277,-0.02235 -2.71557,-0.02235 -1.05047,0 -2.90555,0.02235 -0.58111,-1.095169 -0.86049,-1.586877 l -1.87744,-3.184932 q -0.92754,-1.564527 -1.7098,-2.994952 -0.51406,-0.905191 -1.06164,-1.989185 l -0.23468,5.297043 -0.11175,4.458903 q -1.38573,-0.02235 -2.11212,-0.02235 -0.61463,0 -2.30209,0.02235 z"
             style="font-style:normal;font-variant:normal;font-weight:normal;font-stretch:normal;font-size:22.88680267px;font-family:'Eras Bold ITC';-inkscape-font-specification:'Eras Bold ITC';stroke-width:0.47680834"
             id="path4526"
             inkscape:connector-curvature="0" />
        </g>
        <g
           aria-label="DATA SYSTEMS INC."
           style="font-style:normal;font-variant:normal;font-weight:normal;font-stretch:normal;font-size:6.95382643px;line-height:1.25;font-family:'Microsoft Sans Serif';-inkscape-font-specification:'Microsoft Sans Serif';letter-spacing:0px;word-spacing:0px;fill:#000000;fill-opacity:1;stroke:none;stroke-width:0.43461415"
           id="text4510">
          <path
             d="m 141.06893,50.302541 h 1.57888 q 2.53638,0 2.53638,2.461682 0,2.516008 -2.53638,2.516008 h -1.57888 z m 0.65872,4.386887 h 0.90657 q 1.08314,0 1.47701,-0.502523 0.39387,-0.505918 0.39387,-1.422682 0,-0.892996 -0.39387,-1.381937 -0.39047,-0.488941 -1.47701,-0.488941 h -0.90657 z"
             style="font-style:normal;font-variant:normal;font-weight:normal;font-stretch:normal;font-size:6.95382643px;font-family:'Microsoft Sans Serif';-inkscape-font-specification:'Microsoft Sans Serif';stroke-width:0.43461415"
             id="path4529"
             inkscape:connector-curvature="0" />
          <path
             d="m 148.66789,53.242978 -0.87602,-2.308888 -0.83527,2.308888 z m 1.51436,2.037253 h -0.7436 l -0.57722,-1.514358 h -2.08479 l -0.55006,1.514358 h -0.69606 l 1.91162,-4.97769 h 0.70965 z"
             style="font-style:normal;font-variant:normal;font-weight:normal;font-stretch:normal;font-size:6.95382643px;font-family:'Microsoft Sans Serif';-inkscape-font-specification:'Microsoft Sans Serif';stroke-width:0.43461415"
             id="path4531"
             inkscape:connector-curvature="0" />
          <path
             d="m 154.27713,50.893345 h -1.64678 v 4.386886 h -0.66211 v -4.386886 h -1.6332 v -0.590804 h 3.94209 z"
             style="font-style:normal;font-variant:normal;font-weight:normal;font-stretch:normal;font-size:6.95382643px;font-family:'Microsoft Sans Serif';-inkscape-font-specification:'Microsoft Sans Serif';stroke-width:0.43461415"
             id="path4533"
             inkscape:connector-curvature="0" />
          <path
             d="m 157.5639,53.242978 -0.87602,-2.308888 -0.83527,2.308888 z m 1.51436,2.037253 h -0.7436 l -0.57722,-1.514358 h -2.08479 l -0.55006,1.514358 h -0.69606 l 1.91162,-4.97769 h 0.70964 z"
             style="font-style:normal;font-variant:normal;font-weight:normal;font-stretch:normal;font-size:6.95382643px;font-family:'Microsoft Sans Serif';-inkscape-font-specification:'Microsoft Sans Serif';stroke-width:0.43461415"
             id="path4535"
             inkscape:connector-curvature="0" />
          <path
             d="M 159.07826,55.280231 Z"
             style="font-style:normal;font-variant:normal;font-weight:normal;font-stretch:normal;font-size:6.95382643px;font-family:'Microsoft Sans Serif';-inkscape-font-specification:'Microsoft Sans Serif';stroke-width:0.43461415"
             id="path4537"
             inkscape:connector-curvature="0" />
          <path
             d="m 163.35989,55.365117 q -1.05258,0 -1.57548,-0.471964 -0.5195,-0.471964 -0.54666,-1.212166 h 0.63494 q 0.0509,0.55685 0.46178,0.825088 0.41424,0.264843 0.99825,0.264843 0.55346,0 0.88961,-0.227493 0.33954,-0.227494 0.33954,-0.617967 0,-0.410847 -0.34973,-0.597595 -0.34973,-0.186748 -1.20538,-0.366705 -0.85225,-0.183353 -1.22574,-0.505919 -0.37011,-0.322565 -0.37011,-0.859042 0,-0.604385 0.48215,-0.991463 0.48555,-0.387078 1.28687,-0.387078 0.84207,0 1.35817,0.390473 0.5161,0.390474 0.54666,1.103513 h -0.64173 q -0.0985,-0.903183 -1.23594,-0.903183 -0.55005,0 -0.85225,0.207121 -0.30219,0.207121 -0.30219,0.550059 0,0.312379 0.24107,0.468568 0.24448,0.156189 0.90658,0.302193 0.66551,0.146003 1.05598,0.288611 0.39047,0.142607 0.6689,0.4448 0.27842,0.298797 0.27842,0.804715 0,0.641735 -0.51271,1.066163 -0.50931,0.424428 -1.331,0.424428 z"
             style="font-style:normal;font-variant:normal;font-weight:normal;font-stretch:normal;font-size:6.95382643px;font-family:'Microsoft Sans Serif';-inkscape-font-specification:'Microsoft Sans Serif';stroke-width:0.43461415"
             id="path4539"
             inkscape:connector-curvature="0" />
          <path
             d="m 170.1745,50.302541 -1.95576,2.869133 v 2.108557 h -0.65872 v -2.108557 l -1.95576,-2.869133 h 0.80132 l 1.4872,2.291911 1.4804,-2.291911 z"
             style="font-style:normal;font-variant:normal;font-weight:normal;font-stretch:normal;font-size:6.95382643px;font-family:'Microsoft Sans Serif';-inkscape-font-specification:'Microsoft Sans Serif';stroke-width:0.43461415"
             id="path4541"
             inkscape:connector-curvature="0" />
          <path
             d="m 172.64976,55.365117 q -1.05258,0 -1.57547,-0.471964 -0.5195,-0.471964 -0.54666,-1.212166 h 0.63494 q 0.0509,0.55685 0.46178,0.825088 0.41424,0.264843 0.99825,0.264843 0.55346,0 0.8896,-0.227493 0.33954,-0.227494 0.33954,-0.617967 0,-0.410847 -0.34972,-0.597595 -0.34973,-0.186748 -1.20538,-0.366705 -0.85225,-0.183353 -1.22575,-0.505919 -0.3701,-0.322565 -0.3701,-0.859042 0,-0.604385 0.48215,-0.991463 0.48555,-0.387078 1.28687,-0.387078 0.84206,0 1.35817,0.390473 0.5161,0.390474 0.54666,1.103513 h -0.64174 q -0.0985,-0.903183 -1.23593,-0.903183 -0.55006,0 -0.85225,0.207121 -0.30219,0.207121 -0.30219,0.550059 0,0.312379 0.24107,0.468568 0.24447,0.156189 0.90658,0.302193 0.6655,0.146003 1.05598,0.288611 0.39047,0.142607 0.66889,0.4448 0.27843,0.298797 0.27843,0.804715 0,0.641735 -0.51271,1.066163 -0.50931,0.424428 -1.33101,0.424428 z"
             style="font-style:normal;font-variant:normal;font-weight:normal;font-stretch:normal;font-size:6.95382643px;font-family:'Microsoft Sans Serif';-inkscape-font-specification:'Microsoft Sans Serif';stroke-width:0.43461415"
             id="path4543"
             inkscape:connector-curvature="0" />
          <path
             d="m 178.95506,50.893345 h -1.64678 v 4.386886 h -0.6621 v -4.386886 h -1.6332 v -0.590804 h 3.94208 z"
             style="font-style:normal;font-variant:normal;font-weight:normal;font-stretch:normal;font-size:6.95382643px;font-family:'Microsoft Sans Serif';-inkscape-font-specification:'Microsoft Sans Serif';stroke-width:0.43461415"
             id="path4545"
             inkscape:connector-curvature="0" />
          <path
             d="m 183.3793,55.280231 h -3.71119 v -4.97769 h 3.59575 v 0.590804 h -2.93704 v 1.521149 h 2.74689 v 0.590804 h -2.74689 v 1.68413 h 3.05248 z"
             style="font-style:normal;font-variant:normal;font-weight:normal;font-stretch:normal;font-size:6.95382643px;font-family:'Microsoft Sans Serif';-inkscape-font-specification:'Microsoft Sans Serif';stroke-width:0.43461415"
             id="path4547"
             inkscape:connector-curvature="0" />
          <path
             d="m 188.99194,55.280231 h -0.62476 v -4.234092 l -1.41929,4.234092 h -0.5908 l -1.41929,-4.234092 v 4.234092 h -0.62476 v -4.97769 h 0.98807 l 1.34799,4.149207 1.35477,-4.149207 h 0.98807 z"
             style="font-style:normal;font-variant:normal;font-weight:normal;font-stretch:normal;font-size:6.95382643px;font-family:'Microsoft Sans Serif';-inkscape-font-specification:'Microsoft Sans Serif';stroke-width:0.43461415"
             id="path4549"
             inkscape:connector-curvature="0" />
          <path
             d="m 191.99009,55.365117 q -1.05258,0 -1.57547,-0.471964 -0.5195,-0.471964 -0.54666,-1.212166 h 0.63494 q 0.0509,0.55685 0.46178,0.825088 0.41424,0.264843 0.99825,0.264843 0.55346,0 0.8896,-0.227493 0.33954,-0.227494 0.33954,-0.617967 0,-0.410847 -0.34972,-0.597595 -0.34973,-0.186748 -1.20538,-0.366705 -0.85225,-0.183353 -1.22575,-0.505919 -0.3701,-0.322565 -0.3701,-0.859042 0,-0.604385 0.48215,-0.991463 0.48555,-0.387078 1.28687,-0.387078 0.84206,0 1.35817,0.390473 0.5161,0.390474 0.54666,1.103513 h -0.64174 q -0.0985,-0.903183 -1.23593,-0.903183 -0.55006,0 -0.85225,0.207121 -0.30219,0.207121 -0.30219,0.550059 0,0.312379 0.24107,0.468568 0.24447,0.156189 0.90658,0.302193 0.6655,0.146003 1.05598,0.288611 0.39047,0.142607 0.66889,0.4448 0.27843,0.298797 0.27843,0.804715 0,0.641735 -0.51271,1.066163 -0.50931,0.424428 -1.33101,0.424428 z"
             style="font-style:normal;font-variant:normal;font-weight:normal;font-stretch:normal;font-size:6.95382643px;font-family:'Microsoft Sans Serif';-inkscape-font-specification:'Microsoft Sans Serif';stroke-width:0.43461415"
             id="path4551"
             inkscape:connector-curvature="0" />
          <path
             d="M 194.20052,55.280231 Z"
             style="font-style:normal;font-variant:normal;font-weight:normal;font-stretch:normal;font-size:6.95382643px;font-family:'Microsoft Sans Serif';-inkscape-font-specification:'Microsoft Sans Serif';stroke-width:0.43461415"
             id="path4553"
             inkscape:connector-curvature="0" />
          <path
             d="m 197.34807,55.280231 h -0.6621 v -4.97769 h 0.6621 z"
             style="font-style:normal;font-variant:normal;font-weight:normal;font-stretch:normal;font-size:6.95382643px;font-family:'Microsoft Sans Serif';-inkscape-font-specification:'Microsoft Sans Serif';stroke-width:0.43461415"
             id="path4555"
             inkscape:connector-curvature="0" />
          <path
             d="m 202.44121,55.280231 h -0.67569 l -2.60769,-3.928504 v 3.928504 h -0.62475 v -4.97769 h 0.67229 l 2.60768,3.928505 v -3.928505 h 0.62816 z"
             style="font-style:normal;font-variant:normal;font-weight:normal;font-stretch:normal;font-size:6.95382643px;font-family:'Microsoft Sans Serif';-inkscape-font-specification:'Microsoft Sans Serif';stroke-width:0.43461415"
             id="path4557"
             inkscape:connector-curvature="0" />
          <path
             d="m 205.64309,55.365117 q -1.05597,0 -1.68752,-0.692666 -0.62816,-0.696062 -0.62816,-1.881065 0,-1.185002 0.62816,-1.877669 0.63155,-0.696061 1.68752,-0.696061 0.81151,0 1.38194,0.438009 0.57043,0.43801 0.64173,1.154444 h -0.67908 q -0.0408,-0.471964 -0.41085,-0.750388 -0.3667,-0.278425 -0.92695,-0.278425 -0.75718,0 -1.19858,0.522895 -0.44141,0.5195 -0.44141,1.487195 0,0.964301 0.43801,1.487196 0.43801,0.522895 1.1884,0.522895 0.58401,0 0.94393,-0.285216 0.35991,-0.285215 0.40745,-0.814901 h 0.67908 q -0.0713,0.794529 -0.62475,1.229143 -0.55346,0.434614 -1.39892,0.434614 z"
             style="font-style:normal;font-variant:normal;font-weight:normal;font-stretch:normal;font-size:6.95382643px;font-family:'Microsoft Sans Serif';-inkscape-font-specification:'Microsoft Sans Serif';stroke-width:0.43461415"
             id="path4559"
             inkscape:connector-curvature="0" />
          <path
             d="m 209.34071,55.280231 h -0.69606 V 54.58417 h 0.69606 z"
             style="font-style:normal;font-variant:normal;font-weight:normal;font-stretch:normal;font-size:6.95382643px;font-family:'Microsoft Sans Serif';-inkscape-font-specification:'Microsoft Sans Serif';stroke-width:0.43461415"
             id="path4561"
             inkscape:connector-curvature="0" />
        </g>
        <rect
           style="fill:#000000;fill-opacity:1;stroke-width:0.2467896"
           id="rect4546"
           width="30"
           height="5"
           x="76.58477"
           y="50.129669" />
        <rect
           style="fill:#000000;fill-opacity:1;stroke-width:0.26458332"
           id="rect4548"
           width="15"
           height="5"
           x="107.27765"
           y="50.129669" />
        <rect
           style="fill:#000000;fill-opacity:1;stroke-width:0.26458332"
           id="rect4550"
           width="7.5"
           height="5"
           x="122.97052"
           y="50.129669" />
        <rect
           style="fill:#000000;fill-opacity:1;stroke-width:0.26458332"
           id="rect4552"
           width="3.75"
           height="5"
           x="131.16341"
           y="50.182941" />
        <rect
           style="fill:#000000;fill-opacity:1;stroke-width:0.26458332"
           id="rect4554"
           width="1.875"
           height="5"
           x="135.60628"
           y="50.129669" />
      </g>
    </g>
  </g>
</svg>
